%TF.GenerationSoftware,KiCad,Pcbnew,9.0.1*%
%TF.CreationDate,2025-06-11T16:25:32+05:30*%
%TF.ProjectId,zenitsu,7a656e69-7473-4752-9e6b-696361645f70,rev?*%
%TF.SameCoordinates,Original*%
%TF.FileFunction,Soldermask,Top*%
%TF.FilePolarity,Negative*%
%FSLAX46Y46*%
G04 Gerber Fmt 4.6, Leading zero omitted, Abs format (unit mm)*
G04 Created by KiCad (PCBNEW 9.0.1) date 2025-06-11 16:25:32*
%MOMM*%
%LPD*%
G01*
G04 APERTURE LIST*
G04 Aperture macros list*
%AMRoundRect*
0 Rectangle with rounded corners*
0 $1 Rounding radius*
0 $2 $3 $4 $5 $6 $7 $8 $9 X,Y pos of 4 corners*
0 Add a 4 corners polygon primitive as box body*
4,1,4,$2,$3,$4,$5,$6,$7,$8,$9,$2,$3,0*
0 Add four circle primitives for the rounded corners*
1,1,$1+$1,$2,$3*
1,1,$1+$1,$4,$5*
1,1,$1+$1,$6,$7*
1,1,$1+$1,$8,$9*
0 Add four rect primitives between the rounded corners*
20,1,$1+$1,$2,$3,$4,$5,0*
20,1,$1+$1,$4,$5,$6,$7,0*
20,1,$1+$1,$6,$7,$8,$9,0*
20,1,$1+$1,$8,$9,$2,$3,0*%
G04 Aperture macros list end*
%ADD10C,2.000000*%
%ADD11O,1.600000X1.600000*%
%ADD12C,1.600000*%
%ADD13C,1.500000*%
%ADD14C,1.800000*%
%ADD15R,1.800000X1.800000*%
%ADD16RoundRect,0.275000X-0.625000X0.275000X-0.625000X-0.275000X0.625000X-0.275000X0.625000X0.275000X0*%
%ADD17R,1.800000X1.100000*%
%ADD18R,1.600000X1.600000*%
%ADD19C,1.440000*%
G04 APERTURE END LIST*
D10*
%TO.C,SW1*%
X148915996Y-135041000D03*
X142415996Y-135041000D03*
X148915996Y-130541000D03*
X142415996Y-130541000D03*
%TD*%
D11*
%TO.C,R7*%
X117558996Y-91935000D03*
D12*
X117558996Y-84315000D03*
%TD*%
D13*
%TO.C,R3*%
X144307996Y-120212000D03*
X140907996Y-120212000D03*
%TD*%
D11*
%TO.C,R6*%
X150908996Y-82703000D03*
D12*
X150908996Y-75083000D03*
%TD*%
D11*
%TO.C,R4*%
X128175996Y-87432000D03*
D12*
X128175996Y-79812000D03*
%TD*%
D14*
%TO.C,D1*%
X150343996Y-90217000D03*
D15*
X150343996Y-87677000D03*
%TD*%
D11*
%TO.C,R2*%
X135483996Y-82049000D03*
D12*
X135483996Y-74429000D03*
%TD*%
D15*
%TO.C,D2*%
X141616998Y-87680000D03*
D14*
X141616998Y-90220000D03*
%TD*%
D16*
%TO.C,Q1*%
X131475372Y-109220000D03*
X129405372Y-107950000D03*
D17*
X131475372Y-106680000D03*
%TD*%
D16*
%TO.C,Q3*%
X141635372Y-109220000D03*
X139565372Y-107950000D03*
D17*
X141635372Y-106680000D03*
%TD*%
D16*
%TO.C,Q2*%
X136555372Y-100330000D03*
X134485372Y-99060000D03*
D17*
X136555372Y-97790000D03*
%TD*%
D12*
%TO.C,C1*%
X168222872Y-133587500D03*
D18*
X168222872Y-128587500D03*
%TD*%
D19*
%TO.C,RV1*%
X153617872Y-123825000D03*
X156157872Y-126365000D03*
X158697872Y-123825000D03*
%TD*%
D11*
%TO.C,R1*%
X143220996Y-79671000D03*
D12*
X143220996Y-72051000D03*
%TD*%
%TO.C,C2*%
X182510372Y-133587500D03*
D18*
X182510372Y-128587500D03*
%TD*%
D11*
%TO.C,R5*%
X122866996Y-86163000D03*
D12*
X122866996Y-78543000D03*
%TD*%
D11*
%TO.C,R8*%
X157024996Y-79125000D03*
D12*
X157024996Y-71505000D03*
%TD*%
M02*
