M48
INCH
T1C0.0118
T2C0.0295
T3C0.0315
T4C0.0354
T5C0.0433
T6C0.1969
%
G90
G05
T1
X4.6797Y-4.9324
X5.2234Y-3.3478
X5.2606Y-4.9348
X5.3046Y-4.2993
X5.626Y-3.9929
X5.78Y-3.1801
X5.8775Y-4.8495
X6.0124Y-3.3994
X6.0817Y-5.1764
T2
X5.1104Y-4.25
X5.1604Y-4.2
X5.1604Y-4.3
X5.3104Y-3.9
X5.3604Y-3.85
X5.3604Y-3.95
X5.5104Y-4.25
X5.5604Y-4.2
X5.5604Y-4.3
T3
X4.6283Y-3.3195
X4.6283Y-3.6195
X4.8373Y-3.0922
X4.8373Y-3.3922
X5.0463Y-3.1422
X5.0463Y-3.4422
X5.334Y-2.9303
X5.334Y-3.2303
X5.5476Y-4.7328
X5.6386Y-2.8367
X5.6386Y-3.1367
X5.6814Y-4.7328
X5.9413Y-2.956
X5.9413Y-3.256
X6.0479Y-4.875
X6.1479Y-4.975
X6.1821Y-2.8152
X6.1821Y-3.1152
X6.2479Y-4.875
X6.6229Y-5.0625
X6.6229Y-5.2594
X7.1854Y-5.0625
X7.1854Y-5.2594
T4
X5.5755Y-3.452
X5.5755Y-3.552
X5.9191Y-3.4519
X5.9191Y-3.5519
T5
X5.6069Y-5.1394
X5.6069Y-5.3166
X5.8628Y-5.1394
X5.8628Y-5.3166
T6
X5.4291Y-2.3164
M30
